<svg width="1200" height="640" viewBox="0 0 1200 640" fill="none" xmlns="http://www.w3.org/2000/svg">
  <defs>
    <linearGradient id="bg" x1="0" y1="0" x2="1200" y2="640" gradientUnits="userSpaceOnUse">
      <stop stop-color="#06121F"/>
      <stop offset="0.55" stop-color="#0B2432"/>
      <stop offset="1" stop-color="#16384C"/>
    </linearGradient>
    <linearGradient id="panel" x1="0" y1="0" x2="1" y2="1">
      <stop stop-color="#0F172A"/>
      <stop offset="1" stop-color="#111827"/>
    </linearGradient>
    <linearGradient id="accent" x1="0" y1="0" x2="1" y2="1">
      <stop stop-color="#16A34A"/>
      <stop offset="1" stop-color="#38BDF8"/>
    </linearGradient>
    <filter id="shadow" x="-20%" y="-20%" width="140%" height="140%">
      <feDropShadow dx="0" dy="18" stdDeviation="24" flood-color="#020617" flood-opacity="0.4"/>
    </filter>
  </defs>

  <rect width="1200" height="640" rx="28" fill="url(#bg)"/>
  <circle cx="1035" cy="118" r="190" fill="#38BDF8" fill-opacity="0.08"/>
  <circle cx="169" cy="575" r="165" fill="#22C55E" fill-opacity="0.08"/>
  <rect x="54" y="54" width="1092" height="532" rx="28" fill="#08111D" fill-opacity="0.36" stroke="#7DD3FC" stroke-opacity="0.14"/>

  <g filter="url(#shadow)">
    <rect x="72" y="88" width="520" height="436" rx="24" fill="url(#panel)" stroke="#1F2937"/>
    <rect x="642" y="126" width="444" height="360" rx="24" fill="url(#panel)" stroke="#1F2937"/>
  </g>

  <rect x="98" y="118" width="124" height="32" rx="16" fill="#052E16"/>
  <text x="160" y="139" text-anchor="middle" fill="#86EFAC" font-family="Space Grotesk, Segoe UI, Arial, sans-serif" font-size="15" font-weight="700">ACCESSIBILITY FIRST</text>

  <text x="98" y="214" fill="#F8FAFC" font-family="Space Grotesk, Segoe UI, Arial, sans-serif" font-size="60" font-weight="700">clarity_lazyvim</text>
  <text x="98" y="262" fill="#94A3B8" font-family="Space Grotesk, Segoe UI, Arial, sans-serif" font-size="24" font-weight="500">
    <tspan x="98" dy="0">A readable, validated</tspan>
    <tspan x="98" dy="34">product-shaped Neovim setup.</tspan>
  </text>

  <text x="98" y="354" fill="#E2E8F0" font-family="JetBrains Mono, Consolas, monospace" font-size="22">• high-contrast visual system</text>
  <text x="98" y="394" fill="#E2E8F0" font-family="JetBrains Mono, Consolas, monospace" font-size="22">• first-run guidance</text>
  <text x="98" y="434" fill="#E2E8F0" font-family="JetBrains Mono, Consolas, monospace" font-size="22">• Windows + WSL workflow</text>
  <text x="98" y="474" fill="#E2E8F0" font-family="JetBrains Mono, Consolas, monospace" font-size="22">• audit + validation + CI</text>

  <rect x="98" y="492" width="168" height="14" rx="7" fill="#1E293B"/>
  <rect x="98" y="492" width="168" height="14" rx="7" fill="url(#accent)"/>
  <text x="286" y="505" fill="#BAE6FD" font-family="JetBrains Mono, Consolas, monospace" font-size="14">Windows 94/100  |  WSL 100/100</text>

  <rect x="670" y="156" width="388" height="48" rx="14" fill="#0B1220" stroke="#1E293B"/>
  <circle cx="700" cy="180" r="7" fill="#FB7185"/>
  <circle cx="724" cy="180" r="7" fill="#FBBF24"/>
  <circle cx="748" cy="180" r="7" fill="#34D399"/>
  <text x="784" y="187" fill="#93C5FD" font-family="JetBrains Mono, Consolas, monospace" font-size="18">Clarity Start</text>

  <text x="684" y="250" fill="#E5E7EB" font-family="JetBrains Mono, Consolas, monospace" font-size="21">1. Space  open menu</text>
  <text x="684" y="292" fill="#E5E7EB" font-family="JetBrains Mono, Consolas, monospace" font-size="21">2. f      find files</text>
  <text x="684" y="334" fill="#E5E7EB" font-family="JetBrains Mono, Consolas, monospace" font-size="21">3. w      search text</text>
  <text x="684" y="376" fill="#E5E7EB" font-family="JetBrains Mono, Consolas, monospace" font-size="21">4. t      floating terminal</text>
  <text x="684" y="418" fill="#E5E7EB" font-family="JetBrains Mono, Consolas, monospace" font-size="21">5. a      audit environment</text>
  <text x="684" y="460" fill="#E5E7EB" font-family="JetBrains Mono, Consolas, monospace" font-size="21">6. s      sync Windows / WSL</text>

  <rect x="670" y="454" width="156" height="14" rx="7" fill="#1E293B"/>
  <rect x="670" y="454" width="156" height="14" rx="7" fill="#22C55E"/>
  <text x="846" y="467" fill="#BBF7D0" font-family="JetBrains Mono, Consolas, monospace" font-size="14">Validated in-editor + headless</text>
</svg>
