<svg width="1200" height="640" viewBox="0 0 1200 640" fill="none" xmlns="http://www.w3.org/2000/svg">
  <defs>
    <linearGradient id="bg" x1="0" y1="0" x2="1200" y2="640" gradientUnits="userSpaceOnUse">
      <stop stop-color="#06121F"/>
      <stop offset="0.55" stop-color="#0B2432"/>
      <stop offset="1" stop-color="#16384C"/>
    </linearGradient>
    <linearGradient id="panel" x1="0" y1="0" x2="1" y2="1">
      <stop stop-color="#0F172A"/>
      <stop offset="1" stop-color="#111827"/>
    </linearGradient>
    <linearGradient id="accent" x1="0" y1="0" x2="1" y2="1">
      <stop stop-color="#16A34A"/>
      <stop offset="1" stop-color="#38BDF8"/>
    </linearGradient>
    <filter id="shadow" x="-20%" y="-20%" width="140%" height="140%">
      <feDropShadow dx="0" dy="18" stdDeviation="24" flood-color="#020617" flood-opacity="0.4"/>
    </filter>
  </defs>

  <rect width="1200" height="640" rx="28" fill="url(#bg)"/>
  <circle cx="1035" cy="118" r="190" fill="#38BDF8" fill-opacity="0.08"/>
  <circle cx="169" cy="575" r="165" fill="#22C55E" fill-opacity="0.08"/>
  <rect x="54" y="54" width="1092" height="532" rx="28" fill="#08111D" fill-opacity="0.36" stroke="#7DD3FC" stroke-opacity="0.14"/>

  <g filter="url(#shadow)">
    <rect x="72" y="88" width="522" height="436" rx="24" fill="url(#panel)" stroke="#1F2937"/>
    <rect x="628" y="116" width="500" height="380" rx="24" fill="url(#panel)" stroke="#1F2937"/>
  </g>

  <rect x="98" y="118" width="124" height="32" rx="16" fill="#052E16"/>
  <text x="160" y="139" text-anchor="middle" fill="#86EFAC" font-family="Space Grotesk, Segoe UI, Arial, sans-serif" font-size="15" font-weight="700">ACCESSIBILITY FIRST</text>

  <text x="98" y="220" fill="#F8FAFC" font-family="Space Grotesk, Segoe UI, Arial, sans-serif" font-size="66" font-weight="700">clarity_lazyvim</text>
  <text x="98" y="270" fill="#94A3B8" font-family="Space Grotesk, Segoe UI, Arial, sans-serif" font-size="26" font-weight="500">A readable, validated, product-shaped Neovim setup.</text>

  <text x="98" y="334" fill="#E2E8F0" font-family="JetBrains Mono, Consolas, monospace" font-size="24">• high-contrast visual system</text>
  <text x="98" y="374" fill="#E2E8F0" font-family="JetBrains Mono, Consolas, monospace" font-size="24">• first-run guidance inside the editor</text>
  <text x="98" y="414" fill="#E2E8F0" font-family="JetBrains Mono, Consolas, monospace" font-size="24">• Windows + WSL source-of-truth workflow</text>
  <text x="98" y="454" fill="#E2E8F0" font-family="JetBrains Mono, Consolas, monospace" font-size="24">• audit + validation + CI</text>

  <rect x="98" y="484" width="194" height="16" rx="8" fill="#1E293B"/>
  <rect x="98" y="484" width="194" height="16" rx="8" fill="url(#accent)"/>
  <text x="312" y="498" fill="#BAE6FD" font-family="JetBrains Mono, Consolas, monospace" font-size="16">Windows 94/100  |  WSL 100/100</text>

  <rect x="656" y="146" width="444" height="48" rx="14" fill="#0B1220" stroke="#1E293B"/>
  <circle cx="686" cy="170" r="7" fill="#FB7185"/>
  <circle cx="710" cy="170" r="7" fill="#FBBF24"/>
  <circle cx="734" cy="170" r="7" fill="#34D399"/>
  <text x="770" y="177" fill="#93C5FD" font-family="JetBrains Mono, Consolas, monospace" font-size="18">Clarity Start</text>

  <text x="666" y="238" fill="#E5E7EB" font-family="JetBrains Mono, Consolas, monospace" font-size="24">1. Space      open command menu</text>
  <text x="666" y="278" fill="#E5E7EB" font-family="JetBrains Mono, Consolas, monospace" font-size="24">2. f          find files</text>
  <text x="666" y="318" fill="#E5E7EB" font-family="JetBrains Mono, Consolas, monospace" font-size="24">3. w          search text</text>
  <text x="666" y="358" fill="#E5E7EB" font-family="JetBrains Mono, Consolas, monospace" font-size="24">4. t          floating terminal</text>
  <text x="666" y="398" fill="#E5E7EB" font-family="JetBrains Mono, Consolas, monospace" font-size="24">5. a          audit environment</text>
  <text x="666" y="438" fill="#E5E7EB" font-family="JetBrains Mono, Consolas, monospace" font-size="24">6. s          sync Windows / WSL</text>

  <rect x="656" y="468" width="180" height="16" rx="8" fill="#1E293B"/>
  <rect x="656" y="468" width="180" height="16" rx="8" fill="#22C55E"/>
  <text x="854" y="482" fill="#BBF7D0" font-family="JetBrains Mono, Consolas, monospace" font-size="16">Validated headless and in-editor</text>
</svg>
